<svg xmlns="http://www.w3.org/2000/svg" viewBox="0 0 600 400">
  <rect width="600" height="400" fill="#1f1f23"/>
  <g stroke="#2c2c33" stroke-width="1">
    <line x1="0" y1="100" x2="600" y2="100"/>
    <line x1="0" y1="200" x2="600" y2="200"/>
    <line x1="0" y1="300" x2="600" y2="300"/>
    <line x1="100" y1="0" x2="100" y2="400"/>
    <line x1="200" y1="0" x2="200" y2="400"/>
    <line x1="300" y1="0" x2="300" y2="400"/>
    <line x1="400" y1="0" x2="400" y2="400"/>
    <line x1="500" y1="0" x2="500" y2="400"/>
  </g>
  <rect x="40" y="40" width="240" height="320" fill="#5a5d63"/>
  <rect x="320" y="40" width="240" height="320" fill="#a8d977"/>
  <text x="160" y="210" text-anchor="middle" font-family="'Orbitron', system-ui, sans-serif" font-size="18" font-weight="800" fill="#eef0ec" letter-spacing="3">BEFORE</text>
  <text x="440" y="210" text-anchor="middle" font-family="'Orbitron', system-ui, sans-serif" font-size="18" font-weight="800" fill="#1f1f23" letter-spacing="3">AFTER</text>
  <g fill="#a8d977">
    <path d="M40 40 L46 60 L66 66 L46 72 L40 92 L34 72 L14 66 L34 60 Z" transform="translate(0 0) scale(0.6)" opacity="0.85"/>
  </g>
</svg>
